STARTFONT 2.1
FONT -DEC-MiriamFixed-Medium-R-Normal--12-120-75-75-M-70-ISO8859-8
SIZE 12 75 75
FONTBOUNDINGBOX 8 12 0 -3

STARTPROPERTIES 26
FONTNAME_REGISTRY ""
FAMILY_NAME "MiriamFixed"
FOUNDRY "DEC"
WEIGHT_NAME "Medium"
SLANT "R"
SETWIDTH_NAME "Normal"
ADD_STYLE_NAME ""
PIXEL_SIZE 12
RESOLUTION_X 75
RESOLUTION_Y 75
SPACING "M"
AVERAGE_WIDTH 70
CHARSET_REGISTRY "ISO8859"
CHARSET_ENCODING "8"
CHARSET_COLLECTIONS "ASCII ISO8859-8 "
FULL_NAME "MiriamFixed"
COPYRIGHT "Digital Israel"
CAP_HEIGHT 8
X_HEIGHT 6
_DEC_DEVICE_FONTNAMES "PS=MiriamFixed-ISOLatinHebrew"
QUAD_WIDTH 7
POINT_SIZE 120
WEIGHT 10
DEFAULT_CHAR 0
FONT_DESCENT 3
FONT_ASCENT 10
ENDPROPERTIES

CHARS 152

STARTCHAR space
ENCODING 32
SWIDTH 560 0
DWIDTH 7 0
BBX 1 1 0 0
BITMAP
00
ENDCHAR

STARTCHAR exclam
ENCODING 33
SWIDTH 560 0
DWIDTH 7 0
BBX 1 9 3 0
BITMAP
80
80
80
80
80
80
80
00
80
ENDCHAR

STARTCHAR quotedbl
ENCODING 34
SWIDTH 560 0
DWIDTH 7 0
BBX 3 3 2 5
BITMAP
A0
A0
A0
ENDCHAR

STARTCHAR numbersign
ENCODING 35
SWIDTH 560 0
DWIDTH 7 0
BBX 7 8 0 0
BITMAP
14
14
7E
28
28
FC
50
50
ENDCHAR

STARTCHAR dollar
ENCODING 36
SWIDTH 560 0
DWIDTH 7 0
BBX 5 10 1 -1
BITMAP
20
70
88
80
60
30
88
88
70
20
ENDCHAR

STARTCHAR percent
ENCODING 37
SWIDTH 560 0
DWIDTH 7 0
BBX 6 8 1 0
BITMAP
60
90
64
18
60
98
24
18
ENDCHAR

STARTCHAR ampersand
ENCODING 38
SWIDTH 560 0
DWIDTH 7 0
BBX 7 8 0 0
BITMAP
38
48
40
22
74
88
8C
72
ENDCHAR

STARTCHAR quoteright
ENCODING 39
SWIDTH 560 0
DWIDTH 7 0
BBX 2 3 2 5
BITMAP
40
40
80
ENDCHAR

STARTCHAR parenleft
ENCODING 40
SWIDTH 560 0
DWIDTH 7 0
BBX 3 11 3 -2
BITMAP
20
40
40
80
80
80
80
80
40
40
20
ENDCHAR

STARTCHAR parenright
ENCODING 41
SWIDTH 560 0
DWIDTH 7 0
BBX 3 11 1 -2
BITMAP
80
40
40
20
20
20
20
20
40
40
80
ENDCHAR

STARTCHAR asterisk
ENCODING 42
SWIDTH 560 0
DWIDTH 7 0
BBX 5 5 1 3
BITMAP
20
20
F8
20
50
ENDCHAR

STARTCHAR plus
ENCODING 43
SWIDTH 560 0
DWIDTH 7 0
BBX 5 5 1 1
BITMAP
20
20
F8
20
20
ENDCHAR

STARTCHAR comma
ENCODING 44
SWIDTH 560 0
DWIDTH 7 0
BBX 2 3 1 -1
BITMAP
40
40
80
ENDCHAR

STARTCHAR minus
ENCODING 45
SWIDTH 560 0
DWIDTH 7 0
BBX 5 1 1 3
BITMAP
F8
ENDCHAR

STARTCHAR period
ENCODING 46
SWIDTH 560 0
DWIDTH 7 0
BBX 1 1 2 0
BITMAP
80
ENDCHAR

STARTCHAR slash
ENCODING 47
SWIDTH 560 0
DWIDTH 7 0
BBX 6 10 1 -1
BITMAP
04
08
08
10
10
20
20
40
40
80
ENDCHAR

STARTCHAR zero
ENCODING 48
SWIDTH 560 0
DWIDTH 7 0
BBX 5 9 1 0
BITMAP
70
88
88
88
88
88
88
88
70
ENDCHAR

STARTCHAR one
ENCODING 49
SWIDTH 560 0
DWIDTH 7 0
BBX 5 9 1 0
BITMAP
20
E0
20
20
20
20
20
20
F8
ENDCHAR

STARTCHAR two
ENCODING 50
SWIDTH 560 0
DWIDTH 7 0
BBX 5 9 1 0
BITMAP
70
88
88
88
10
20
40
88
F8
ENDCHAR

STARTCHAR three
ENCODING 51
SWIDTH 560 0
DWIDTH 7 0
BBX 5 9 1 0
BITMAP
70
88
08
08
30
08
08
88
70
ENDCHAR

STARTCHAR four
ENCODING 52
SWIDTH 560 0
DWIDTH 7 0
BBX 6 9 0 0
BITMAP
08
18
28
28
48
88
FC
08
1C
ENDCHAR

STARTCHAR five
ENCODING 53
SWIDTH 560 0
DWIDTH 7 0
BBX 6 9 0 0
BITMAP
7C
40
40
40
78
04
04
84
78
ENDCHAR

STARTCHAR six
ENCODING 54
SWIDTH 560 0
DWIDTH 7 0
BBX 5 9 1 0
BITMAP
38
40
80
80
F0
88
88
88
70
ENDCHAR

STARTCHAR seven
ENCODING 55
SWIDTH 560 0
DWIDTH 7 0
BBX 5 9 1 0
BITMAP
F8
88
10
10
10
10
20
20
20
ENDCHAR

STARTCHAR eight
ENCODING 56
SWIDTH 560 0
DWIDTH 7 0
BBX 5 9 1 0
BITMAP
70
88
88
88
70
88
88
88
70
ENDCHAR

STARTCHAR nine
ENCODING 57
SWIDTH 560 0
DWIDTH 7 0
BBX 5 9 1 0
BITMAP
70
88
88
88
88
78
08
10
E0
ENDCHAR

STARTCHAR colon
ENCODING 58
SWIDTH 560 0
DWIDTH 7 0
BBX 1 5 3 0
BITMAP
80
00
00
00
80
ENDCHAR

STARTCHAR semicolon
ENCODING 59
SWIDTH 560 0
DWIDTH 7 0
BBX 2 6 2 -1
BITMAP
40
00
00
40
40
80
ENDCHAR

STARTCHAR less
ENCODING 60
SWIDTH 560 0
DWIDTH 7 0
BBX 4 7 1 0
BITMAP
10
20
40
80
40
20
10
ENDCHAR

STARTCHAR equal
ENCODING 61
SWIDTH 560 0
DWIDTH 7 0
BBX 5 3 1 2
BITMAP
F8
00
F8
ENDCHAR

STARTCHAR greater
ENCODING 62
SWIDTH 560 0
DWIDTH 7 0
BBX 4 7 2 0
BITMAP
80
40
20
10
20
40
80
ENDCHAR

STARTCHAR question
ENCODING 63
SWIDTH 560 0
DWIDTH 7 0
BBX 5 8 1 0
BITMAP
70
88
08
10
20
20
00
20
ENDCHAR

STARTCHAR at
ENCODING 64
SWIDTH 560 0
DWIDTH 7 0
BBX 6 8 1 0
BITMAP
70
88
98
A8
A8
9C
80
70
ENDCHAR

STARTCHAR A
ENCODING 65
SWIDTH 560 0
DWIDTH 7 0
BBX 7 8 0 0
BITMAP
70
10
28
28
7C
44
44
EE
ENDCHAR

STARTCHAR B
ENCODING 66
SWIDTH 560 0
DWIDTH 7 0
BBX 6 8 0 0
BITMAP
F8
44
44
78
44
44
44
F8
ENDCHAR

STARTCHAR C
ENCODING 67
SWIDTH 560 0
DWIDTH 7 0
BBX 5 8 1 0
BITMAP
70
88
88
80
80
88
88
70
ENDCHAR

STARTCHAR D
ENCODING 68
SWIDTH 560 0
DWIDTH 7 0
BBX 6 8 0 0
BITMAP
F8
44
44
44
44
44
44
F8
ENDCHAR

STARTCHAR E
ENCODING 69
SWIDTH 560 0
DWIDTH 7 0
BBX 6 8 0 0
BITMAP
FC
44
50
70
50
40
44
FC
ENDCHAR

STARTCHAR F
ENCODING 70
SWIDTH 560 0
DWIDTH 7 0
BBX 6 8 0 0
BITMAP
FC
44
54
70
50
40
40
F0
ENDCHAR

STARTCHAR G
ENCODING 71
SWIDTH 560 0
DWIDTH 7 0
BBX 5 8 1 0
BITMAP
70
88
88
80
98
88
88
70
ENDCHAR

STARTCHAR H
ENCODING 72
SWIDTH 560 0
DWIDTH 7 0
BBX 7 8 0 0
BITMAP
EE
44
44
7C
44
44
44
EE
ENDCHAR

STARTCHAR I
ENCODING 73
SWIDTH 560 0
DWIDTH 7 0
BBX 5 8 1 0
BITMAP
F8
20
20
20
20
20
20
F8
ENDCHAR

STARTCHAR J
ENCODING 74
SWIDTH 560 0
DWIDTH 7 0
BBX 5 8 1 0
BITMAP
78
10
10
10
10
90
90
60
ENDCHAR

STARTCHAR K
ENCODING 75
SWIDTH 560 0
DWIDTH 7 0
BBX 7 8 0 0
BITMAP
EC
48
50
60
70
48
44
E6
ENDCHAR

STARTCHAR L
ENCODING 76
SWIDTH 560 0
DWIDTH 7 0
BBX 6 8 0 0
BITMAP
E0
40
40
40
40
44
44
FC
ENDCHAR

STARTCHAR M
ENCODING 77
SWIDTH 560 0
DWIDTH 7 0
BBX 7 8 0 0
BITMAP
C6
6C
6C
54
54
54
44
EE
ENDCHAR

STARTCHAR N
ENCODING 78
SWIDTH 560 0
DWIDTH 7 0
BBX 7 8 0 0
BITMAP
CE
64
64
54
54
4C
4C
E4
ENDCHAR

STARTCHAR O
ENCODING 79
SWIDTH 560 0
DWIDTH 7 0
BBX 5 8 1 0
BITMAP
70
88
88
88
88
88
88
70
ENDCHAR

STARTCHAR P
ENCODING 80
SWIDTH 560 0
DWIDTH 7 0
BBX 6 8 0 0
BITMAP
F8
4C
44
4C
78
40
40
F0
ENDCHAR

STARTCHAR Q
ENCODING 81
SWIDTH 560 0
DWIDTH 7 0
BBX 5 9 1 -1
BITMAP
70
88
88
88
88
88
88
70
18
ENDCHAR

STARTCHAR R
ENCODING 82
SWIDTH 560 0
DWIDTH 7 0
BBX 7 8 0 0
BITMAP
F8
44
44
78
48
44
44
E6
ENDCHAR

STARTCHAR S
ENCODING 83
SWIDTH 560 0
DWIDTH 7 0
BBX 5 8 1 0
BITMAP
78
88
80
E0
38
08
88
F0
ENDCHAR

STARTCHAR T
ENCODING 84
SWIDTH 560 0
DWIDTH 7 0
BBX 7 8 0 0
BITMAP
FE
92
92
10
10
10
10
7C
ENDCHAR

STARTCHAR U
ENCODING 85
SWIDTH 560 0
DWIDTH 7 0
BBX 7 8 0 0
BITMAP
EE
44
44
44
44
44
6C
38
ENDCHAR

STARTCHAR V
ENCODING 86
SWIDTH 560 0
DWIDTH 7 0
BBX 7 8 0 0
BITMAP
EE
44
44
6C
28
28
38
10
ENDCHAR

STARTCHAR W
ENCODING 87
SWIDTH 560 0
DWIDTH 7 0
BBX 7 8 0 0
BITMAP
EE
44
54
54
54
6C
28
28
ENDCHAR

STARTCHAR X
ENCODING 88
SWIDTH 560 0
DWIDTH 7 0
BBX 7 8 0 0
BITMAP
EE
44
28
10
28
28
44
EE
ENDCHAR

STARTCHAR Y
ENCODING 89
SWIDTH 560 0
DWIDTH 7 0
BBX 7 8 0 0
BITMAP
EE
44
28
28
10
10
10
38
ENDCHAR

STARTCHAR Z
ENCODING 90
SWIDTH 560 0
DWIDTH 7 0
BBX 5 8 1 0
BITMAP
F8
88
90
20
20
48
88
F8
ENDCHAR

STARTCHAR bracketleft
ENCODING 91
SWIDTH 560 0
DWIDTH 7 0
BBX 2 11 3 -2
BITMAP
C0
80
80
80
80
80
80
80
80
80
C0
ENDCHAR

STARTCHAR backslash
ENCODING 92
SWIDTH 560 0
DWIDTH 7 0
BBX 6 10 1 -1
BITMAP
80
40
40
20
20
10
10
08
08
04
ENDCHAR

STARTCHAR bracketright
ENCODING 93
SWIDTH 560 0
DWIDTH 7 0
BBX 2 11 2 -2
BITMAP
C0
40
40
40
40
40
40
40
40
40
C0
ENDCHAR

STARTCHAR asciicircum
ENCODING 94
SWIDTH 560 0
DWIDTH 7 0
BBX 5 3 1 5
BITMAP
20
50
88
ENDCHAR

STARTCHAR underscore
ENCODING 95
SWIDTH 560 0
DWIDTH 7 0
BBX 7 1 0 -3
BITMAP
FE
ENDCHAR

STARTCHAR quoteleft
ENCODING 96
SWIDTH 560 0
DWIDTH 7 0
BBX 2 3 3 5
BITMAP
80
80
40
ENDCHAR

STARTCHAR a
ENCODING 97
SWIDTH 560 0
DWIDTH 7 0
BBX 6 6 1 0
BITMAP
F0
08
78
88
88
74
ENDCHAR

STARTCHAR b
ENCODING 98
SWIDTH 560 0
DWIDTH 7 0
BBX 6 9 0 0
BITMAP
C0
40
40
78
44
44
44
44
B8
ENDCHAR

STARTCHAR c
ENCODING 99
SWIDTH 560 0
DWIDTH 7 0
BBX 5 6 1 0
BITMAP
70
88
80
80
88
70
ENDCHAR

STARTCHAR d
ENCODING 100
SWIDTH 560 0
DWIDTH 7 0
BBX 6 9 1 0
BITMAP
18
08
08
78
88
88
88
88
74
ENDCHAR

STARTCHAR e
ENCODING 101
SWIDTH 560 0
DWIDTH 7 0
BBX 5 6 1 0
BITMAP
70
88
F8
80
88
70
ENDCHAR

STARTCHAR f
ENCODING 102
SWIDTH 560 0
DWIDTH 7 0
BBX 5 9 1 0
BITMAP
38
40
40
F8
40
40
40
40
F0
ENDCHAR

STARTCHAR g
ENCODING 103
SWIDTH 560 0
DWIDTH 7 0
BBX 6 9 1 -3
BITMAP
74
88
88
88
88
78
08
08
70
ENDCHAR

STARTCHAR h
ENCODING 104
SWIDTH 560 0
DWIDTH 7 0
BBX 7 9 0 0
BITMAP
C0
40
40
58
64
44
44
44
EE
ENDCHAR

STARTCHAR i
ENCODING 105
SWIDTH 560 0
DWIDTH 7 0
BBX 5 9 1 0
BITMAP
20
00
00
E0
20
20
20
20
F8
ENDCHAR

STARTCHAR j
ENCODING 106
SWIDTH 560 0
DWIDTH 7 0
BBX 4 12 1 -3
BITMAP
10
00
00
F0
10
10
10
10
10
10
10
E0
ENDCHAR

STARTCHAR k
ENCODING 107
SWIDTH 560 0
DWIDTH 7 0
BBX 7 9 0 0
BITMAP
C0
40
40
4C
50
60
50
48
C6
ENDCHAR

STARTCHAR l
ENCODING 108
SWIDTH 560 0
DWIDTH 7 0
BBX 6 9 1 0
BITMAP
E0
20
20
20
20
20
20
20
FC
ENDCHAR

STARTCHAR m
ENCODING 109
SWIDTH 560 0
DWIDTH 7 0
BBX 7 6 0 0
BITMAP
E8
54
54
54
54
D6
ENDCHAR

STARTCHAR n
ENCODING 110
SWIDTH 560 0
DWIDTH 7 0
BBX 7 6 0 0
BITMAP
B8
64
44
44
44
E6
ENDCHAR

STARTCHAR o
ENCODING 111
SWIDTH 560 0
DWIDTH 7 0
BBX 5 6 1 0
BITMAP
70
88
88
88
88
70
ENDCHAR

STARTCHAR p
ENCODING 112
SWIDTH 560 0
DWIDTH 7 0
BBX 6 9 0 -3
BITMAP
B8
44
44
44
44
78
40
40
E0
ENDCHAR

STARTCHAR q
ENCODING 113
SWIDTH 560 0
DWIDTH 7 0
BBX 6 9 1 -3
BITMAP
74
88
88
88
88
78
08
08
1C
ENDCHAR

STARTCHAR r
ENCODING 114
SWIDTH 560 0
DWIDTH 7 0
BBX 5 6 1 0
BITMAP
B8
40
40
40
40
F0
ENDCHAR

STARTCHAR s
ENCODING 115
SWIDTH 560 0
DWIDTH 7 0
BBX 5 6 1 0
BITMAP
70
88
70
08
88
70
ENDCHAR

STARTCHAR t
ENCODING 116
SWIDTH 560 0
DWIDTH 7 0
BBX 6 8 1 0
BITMAP
40
40
F8
40
40
40
44
38
ENDCHAR

STARTCHAR u
ENCODING 117
SWIDTH 560 0
DWIDTH 7 0
BBX 7 6 0 0
BITMAP
CC
44
44
44
44
3A
ENDCHAR

STARTCHAR v
ENCODING 118
SWIDTH 560 0
DWIDTH 7 0
BBX 7 6 0 0
BITMAP
EE
44
44
28
38
10
ENDCHAR

STARTCHAR w
ENCODING 119
SWIDTH 560 0
DWIDTH 7 0
BBX 7 6 0 0
BITMAP
EE
44
54
54
28
28
ENDCHAR

STARTCHAR x
ENCODING 120
SWIDTH 560 0
DWIDTH 7 0
BBX 7 6 0 0
BITMAP
EE
28
10
28
44
C6
ENDCHAR

STARTCHAR y
ENCODING 121
SWIDTH 560 0
DWIDTH 7 0
BBX 7 9 0 -3
BITMAP
EE
44
44
28
38
10
10
10
60
ENDCHAR

STARTCHAR z
ENCODING 122
SWIDTH 560 0
DWIDTH 7 0
BBX 5 6 1 0
BITMAP
F8
90
20
40
88
F8
ENDCHAR

STARTCHAR braceleft
ENCODING 123
SWIDTH 560 0
DWIDTH 7 0
BBX 3 10 2 -2
BITMAP
20
40
40
40
80
40
40
40
40
20
ENDCHAR

STARTCHAR bar
ENCODING 124
SWIDTH 560 0
DWIDTH 7 0
BBX 1 10 3 -2
BITMAP
80
80
80
80
80
80
80
80
80
80
ENDCHAR

STARTCHAR braceright
ENCODING 125
SWIDTH 560 0
DWIDTH 7 0
BBX 3 10 2 -2
BITMAP
80
40
40
40
20
40
40
40
40
80
ENDCHAR

STARTCHAR asciitilde
ENCODING 126
SWIDTH 560 0
DWIDTH 7 0
BBX 5 3 1 2
BITMAP
48
A8
90
ENDCHAR

STARTCHAR cent
ENCODING 162
SWIDTH 560 0
DWIDTH 7 0
BBX 5 9 1 -1
BITMAP
20
20
70
A8
A0
A8
70
20
20
ENDCHAR

STARTCHAR sterling
ENCODING 163
SWIDTH 560 0
DWIDTH 7 0
BBX 6 8 1 0
BITMAP
30
48
40
F8
20
20
44
F8
ENDCHAR

STARTCHAR currency
ENCODING 164
SWIDTH 560 0
DWIDTH 7 0
BBX 6 6 0 1
BITMAP
84
78
48
48
78
84
ENDCHAR

STARTCHAR yen
ENCODING 165
SWIDTH 560 0
DWIDTH 7 0
BBX 7 8 0 0
BITMAP
EE
44
28
7C
10
7C
10
38
ENDCHAR

STARTCHAR brokenbar
ENCODING 166
SWIDTH 560 0
DWIDTH 7 0
BBX 1 10 3 -2
BITMAP
80
80
80
80
00
00
80
80
80
80
ENDCHAR

STARTCHAR section
ENCODING 167
SWIDTH 560 0
DWIDTH 7 0
BBX 5 10 1 -1
BITMAP
78
48
60
90
88
48
30
90
90
F0
ENDCHAR

STARTCHAR dieresis
ENCODING 168
SWIDTH 560 0
DWIDTH 7 0
BBX 3 1 2 7
BITMAP
A0
ENDCHAR

STARTCHAR copyright
ENCODING 169
SWIDTH 560 0
DWIDTH 7 0
BBX 7 8 0 0
BITMAP
38
44
9A
A2
A2
9A
44
38
ENDCHAR

STARTCHAR multiply
ENCODING 170
SWIDTH 560 0
DWIDTH 7 0
BBX 5 5 1 1
BITMAP
88
50
20
50
88
ENDCHAR

STARTCHAR guillemotleft
ENCODING 171
SWIDTH 560 0
DWIDTH 7 0
BBX 6 5 0 1
BITMAP
24
48
90
48
24
ENDCHAR

STARTCHAR logicalnot
ENCODING 172
SWIDTH 560 0
DWIDTH 7 0
BBX 5 3 1 2
BITMAP
F8
08
08
ENDCHAR

STARTCHAR hyphen
ENCODING 173
SWIDTH 560 0
DWIDTH 7 0
BBX 5 1 1 3
BITMAP
F8
ENDCHAR

STARTCHAR registered
ENCODING 174
SWIDTH 560 0
DWIDTH 7 0
BBX 7 8 0 0
BITMAP
38
44
BA
AA
B2
AA
44
38
ENDCHAR

STARTCHAR macron
ENCODING 175
SWIDTH 560 0
DWIDTH 7 0
BBX 5 1 1 7
BITMAP
F8
ENDCHAR

STARTCHAR degree
ENCODING 176
SWIDTH 560 0
DWIDTH 7 0
BBX 4 4 1 4
BITMAP
60
90
90
60
ENDCHAR

STARTCHAR plusminus
ENCODING 177
SWIDTH 560 0
DWIDTH 7 0
BBX 5 5 1 1
BITMAP
20
F8
20
00
F8
ENDCHAR

STARTCHAR twosuperior
ENCODING 178
SWIDTH 560 0
DWIDTH 7 0
BBX 4 5 1 3
BITMAP
60
90
20
40
F0
ENDCHAR

STARTCHAR threesuperior
ENCODING 179
SWIDTH 560 0
DWIDTH 7 0
BBX 4 5 1 3
BITMAP
60
90
20
90
60
ENDCHAR

STARTCHAR acute
ENCODING 180
SWIDTH 560 0
DWIDTH 7 0
BBX 2 2 3 7
BITMAP
40
80
ENDCHAR

STARTCHAR mu
ENCODING 181
SWIDTH 560 0
DWIDTH 7 0
BBX 7 9 0 -3
BITMAP
CC
44
44
44
44
7A
40
40
40
ENDCHAR

STARTCHAR paragraph
ENCODING 182
SWIDTH 560 0
DWIDTH 7 0
BBX 6 10 0 -1
BITMAP
7C
A8
A8
A8
68
28
28
28
28
6C
ENDCHAR

STARTCHAR periodcentered
ENCODING 183
SWIDTH 560 0
DWIDTH 7 0
BBX 1 1 3 3
BITMAP
80
ENDCHAR

STARTCHAR cedilla
ENCODING 184
SWIDTH 560 0
DWIDTH 7 0
BBX 3 3 2 -3
BITMAP
40
20
C0
ENDCHAR

STARTCHAR onesuperior
ENCODING 185
SWIDTH 560 0
DWIDTH 7 0
BBX 3 5 2 3
BITMAP
40
C0
40
40
E0
ENDCHAR

STARTCHAR divide
ENCODING 186
SWIDTH 560 0
DWIDTH 7 0
BBX 5 5 1 1
BITMAP
20
00
F8
00
20
ENDCHAR

STARTCHAR guillemotright
ENCODING 187
SWIDTH 560 0
DWIDTH 7 0
BBX 6 5 1 1
BITMAP
90
48
24
48
90
ENDCHAR

STARTCHAR onequarter
ENCODING 188
SWIDTH 560 0
DWIDTH 7 0
BBX 8 10 0 -1
BITMAP
40
C1
42
44
E8
12
26
4A
8F
02
ENDCHAR

STARTCHAR onehalf
ENCODING 189
SWIDTH 560 0
DWIDTH 7 0
BBX 8 10 0 -1
BITMAP
40
C1
42
44
E8
16
29
42
84
0F
ENDCHAR

STARTCHAR threequarters
ENCODING 190
SWIDTH 560 0
DWIDTH 7 0
BBX 8 10 0 -1
BITMAP
60
91
22
94
68
12
26
4A
8F
02
ENDCHAR

STARTCHAR dblunderscore
ENCODING 223
SWIDTH 560 0
DWIDTH 7 0
BBX 7 7 0 -2
BITMAP
00
00
00
FE
00
00
FE
ENDCHAR

STARTCHAR aleph
ENCODING 224
SWIDTH 560 0
DWIDTH 7 0
BBX 7 7 0 0
BITMAP
9C
44
64
98
88
84
E4
ENDCHAR

STARTCHAR beth
ENCODING 225
SWIDTH 560 0
DWIDTH 7 0
BBX 7 7 0 0
BITMAP
78
08
08
08
08
08
FC
ENDCHAR

STARTCHAR gimmel
ENCODING 226
SWIDTH 560 0
DWIDTH 7 0
BBX 5 7 0 0
BITMAP
38
08
08
08
18
28
C8
ENDCHAR

STARTCHAR daleth
ENCODING 227
SWIDTH 560 0
DWIDTH 7 0
BBX 7 8 0 -1
BITMAP
7C
08
08
08
08
08
08
00
ENDCHAR

STARTCHAR he
ENCODING 228
SWIDTH 560 0
DWIDTH 7 0
BBX 6 8 0 -1
BITMAP
7C
04
04
44
44
44
44
00
ENDCHAR

STARTCHAR waw
ENCODING 229
SWIDTH 560 0
DWIDTH 7 0
BBX 4 8 1 -1
BITMAP
70
10
10
10
10
10
10
00
ENDCHAR

STARTCHAR zayin
ENCODING 230
SWIDTH 560 0
DWIDTH 7 0
BBX 5 8 1 -1
BITMAP
F8
20
20
20
20
20
20
00
ENDCHAR

STARTCHAR het
ENCODING 231
SWIDTH 560 0
DWIDTH 7 0
BBX 6 8 0 -1
BITMAP
FC
48
48
48
48
48
48
00
ENDCHAR

STARTCHAR teth
ENCODING 232
SWIDTH 560 0
DWIDTH 7 0
BBX 7 8 0 -1
BITMAP
DC
54
54
44
44
44
38
00
ENDCHAR

STARTCHAR yod
ENCODING 233
SWIDTH 560 0
DWIDTH 7 0
BBX 5 6 1 1
BITMAP
70
10
10
10
00
00
ENDCHAR

STARTCHAR kaphfinal
ENCODING 234
SWIDTH 560 0
DWIDTH 7 0
BBX 6 9 0 -2
BITMAP
FC
08
08
08
08
08
08
08
0C
ENDCHAR

STARTCHAR kaph
ENCODING 235
SWIDTH 560 0
DWIDTH 7 0
BBX 6 8 0 0
BITMAP
00
78
04
04
04
04
04
78
ENDCHAR

STARTCHAR lamed
ENCODING 236
SWIDTH 560 0
DWIDTH 7 0
BBX 7 10 0 -1
BITMAP
40
40
7C
04
04
04
08
10
18
00
ENDCHAR

STARTCHAR memfinal
ENCODING 237
SWIDTH 560 0
DWIDTH 7 0
BBX 6 8 0 0
BITMAP
00
FC
44
44
44
44
44
7C
ENDCHAR

STARTCHAR mem
ENCODING 238
SWIDTH 560 0
DWIDTH 7 0
BBX 7 8 0 -1
BITMAP
D8
64
44
44
44
44
5C
00
ENDCHAR

STARTCHAR nunfinal
ENCODING 239
SWIDTH 560 0
DWIDTH 7 0
BBX 4 9 2 -2
BITMAP
E0
20
20
20
20
20
20
20
30
ENDCHAR

STARTCHAR nun
ENCODING 240
SWIDTH 560 0
DWIDTH 7 0
BBX 4 8 1 -1
BITMAP
70
10
10
10
10
10
F0
00
ENDCHAR

STARTCHAR samekh
ENCODING 241
SWIDTH 560 0
DWIDTH 7 0
BBX 7 7 0 0
BITMAP
FC
44
44
44
44
44
38
ENDCHAR

STARTCHAR ayin
ENCODING 242
SWIDTH 560 0
DWIDTH 7 0
BBX 7 8 0 -1
BITMAP
6C
24
24
24
24
24
F8
00
ENDCHAR

STARTCHAR pefinal
ENCODING 243
SWIDTH 560 0
DWIDTH 7 0
BBX 6 9 0 -2
BITMAP
F8
88
88
88
E8
08
08
08
0C
ENDCHAR

STARTCHAR pe
ENCODING 244
SWIDTH 560 0
DWIDTH 7 0
BBX 6 8 0 -1
BITMAP
7C
44
44
64
04
04
7C
00
ENDCHAR

STARTCHAR zadikfinal
ENCODING 245
SWIDTH 560 0
DWIDTH 7 0
BBX 7 9 0 -2
BITMAP
EC
24
24
28
30
20
20
20
38
ENDCHAR

STARTCHAR zadik
ENCODING 246
SWIDTH 560 0
DWIDTH 7 0
BBX 7 7 0 0
BITMAP
6C
24
24
18
08
04
7C
ENDCHAR

STARTCHAR kof
ENCODING 247
SWIDTH 560 0
DWIDTH 7 0
BBX 7 9 0 -2
BITMAP
FC
04
04
44
48
50
58
40
40
ENDCHAR

STARTCHAR resh
ENCODING 248
SWIDTH 560 0
DWIDTH 7 0
BBX 6 8 0 -1
BITMAP
7C
04
04
04
04
04
04
00
ENDCHAR

STARTCHAR shin
ENCODING 249
SWIDTH 560 0
DWIDTH 7 0
BBX 7 8 0 -1
BITMAP
D6
92
92
92
92
92
7C
00
ENDCHAR

STARTCHAR taf
ENCODING 250
SWIDTH 560 0
DWIDTH 7 0
BBX 7 8 0 -1
BITMAP
7C
24
24
24
24
24
E4
00
ENDCHAR
ENDFONT
